<svg xmlns="http://www.w3.org/2000/svg" viewBox="0 0 1920 900" preserveAspectRatio="xMidYMid slice">
  <defs>
    <!-- Base gradient -->
    <linearGradient id="bg" x1="0%" y1="0%" x2="100%" y2="100%">
      <stop offset="0%" stop-color="#040d1a"/>
      <stop offset="50%" stop-color="#071428"/>
      <stop offset="100%" stop-color="#030b17"/>
    </linearGradient>

    <!-- Gold glow -->
    <radialGradient id="glow1" cx="30%" cy="40%" r="40%">
      <stop offset="0%" stop-color="#c8962a" stop-opacity="0.12"/>
      <stop offset="100%" stop-color="#c8962a" stop-opacity="0"/>
    </radialGradient>
    <radialGradient id="glow2" cx="75%" cy="60%" r="35%">
      <stop offset="0%" stop-color="#1a8c6e" stop-opacity="0.09"/>
      <stop offset="100%" stop-color="#1a8c6e" stop-opacity="0"/>
    </radialGradient>
    <radialGradient id="glow3" cx="55%" cy="20%" r="30%">
      <stop offset="0%" stop-color="#c8962a" stop-opacity="0.07"/>
      <stop offset="100%" stop-color="#c8962a" stop-opacity="0"/>
    </radialGradient>

    <!-- Blur filter -->
    <filter id="blur4">
      <feGaussianBlur stdDeviation="4"/>
    </filter>
    <filter id="blur8">
      <feGaussianBlur stdDeviation="8"/>
    </filter>
    <filter id="blur2">
      <feGaussianBlur stdDeviation="2"/>
    </filter>
  </defs>

  <!-- Base -->
  <rect width="1920" height="900" fill="url(#bg)"/>

  <!-- Ambient glows -->
  <rect width="1920" height="900" fill="url(#glow1)"/>
  <rect width="1920" height="900" fill="url(#glow2)"/>
  <rect width="1920" height="900" fill="url(#glow3)"/>

  <!-- Hex grid layer -->
  <g opacity="0.06" stroke="#c8962a" stroke-width="0.7" fill="none">
    <!-- Row 1 -->
    <polygon points="120,60 150,43 180,60 180,94 150,111 120,94"/>
    <polygon points="180,60 210,43 240,60 240,94 210,111 180,94"/>
    <polygon points="240,60 270,43 300,60 300,94 270,111 240,94"/>
    <polygon points="300,60 330,43 360,60 360,94 330,111 300,94"/>
    <polygon points="360,60 390,43 420,60 420,94 390,111 360,94"/>
    <polygon points="420,60 450,43 480,60 480,94 450,111 420,94"/>
    <polygon points="480,60 510,43 540,60 540,94 510,111 480,94"/>
    <polygon points="540,60 570,43 600,60 600,94 570,111 540,94"/>
    <polygon points="600,60 630,43 660,60 660,94 630,111 600,94"/>
    <polygon points="660,60 690,43 720,60 720,94 690,111 660,94"/>
    <polygon points="720,60 750,43 780,60 780,94 750,111 720,94"/>
    <polygon points="780,60 810,43 840,60 840,94 810,111 780,94"/>
    <polygon points="840,60 870,43 900,60 900,94 870,111 840,94"/>
    <polygon points="900,60 930,43 960,60 960,94 930,111 900,94"/>
    <polygon points="960,60 990,43 1020,60 1020,94 990,111 960,94"/>
    <polygon points="1020,60 1050,43 1080,60 1080,94 1050,111 1020,94"/>
    <polygon points="1080,60 1110,43 1140,60 1140,94 1110,111 1080,94"/>
    <polygon points="1140,60 1170,43 1200,60 1200,94 1170,111 1140,94"/>
    <polygon points="1200,60 1230,43 1260,60 1260,94 1230,111 1200,94"/>
    <polygon points="1260,60 1290,43 1320,60 1320,94 1290,111 1260,94"/>
    <polygon points="1320,60 1350,43 1380,60 1380,94 1350,111 1320,94"/>
    <polygon points="1380,60 1410,43 1440,60 1440,94 1410,111 1380,94"/>
    <polygon points="1440,60 1470,43 1500,60 1500,94 1470,111 1440,94"/>
    <polygon points="1500,60 1530,43 1560,60 1560,94 1530,111 1500,94"/>
    <polygon points="1560,60 1590,43 1620,60 1620,94 1590,111 1560,94"/>
    <polygon points="1620,60 1650,43 1680,60 1680,94 1650,111 1620,94"/>
    <polygon points="1680,60 1710,43 1740,60 1740,94 1710,111 1680,94"/>
    <polygon points="1740,60 1770,43 1800,60 1800,94 1770,111 1740,94"/>
    <!-- Row 2 offset -->
    <polygon points="90,111 120,94 150,111 150,145 120,162 90,145"/>
    <polygon points="150,111 180,94 210,111 210,145 180,162 150,145"/>
    <polygon points="210,111 240,94 270,111 270,145 240,162 210,145"/>
    <polygon points="270,111 300,94 330,111 330,145 300,162 270,145"/>
    <polygon points="330,111 360,94 390,111 390,145 360,162 330,145"/>
    <polygon points="390,111 420,94 450,111 450,145 420,162 390,145"/>
    <polygon points="450,111 480,94 510,111 510,145 480,162 450,145"/>
    <polygon points="510,111 540,94 570,111 570,145 540,162 510,145"/>
    <polygon points="570,111 600,94 630,111 630,145 600,162 570,145"/>
    <polygon points="630,111 660,94 690,111 690,145 660,162 630,145"/>
    <polygon points="690,111 720,94 750,111 750,145 720,162 690,145"/>
    <polygon points="750,111 780,94 810,111 810,145 780,162 750,145"/>
    <polygon points="810,111 840,94 870,111 870,145 840,162 810,145"/>
    <polygon points="870,111 900,94 930,111 930,145 900,162 870,145"/>
    <polygon points="930,111 960,94 990,111 990,145 960,162 930,145"/>
    <polygon points="990,111 1020,94 1050,111 1050,145 1020,162 990,145"/>
    <polygon points="1050,111 1080,94 1110,111 1110,145 1080,162 1050,145"/>
    <polygon points="1110,111 1140,94 1170,111 1170,145 1140,162 1110,145"/>
    <polygon points="1170,111 1200,94 1230,111 1230,145 1200,162 1170,145"/>
    <polygon points="1230,111 1260,94 1290,111 1290,145 1260,162 1230,145"/>
    <polygon points="1290,111 1320,94 1350,111 1350,145 1320,162 1290,145"/>
    <polygon points="1350,111 1380,94 1410,111 1410,145 1380,162 1350,145"/>
    <polygon points="1410,111 1440,94 1470,111 1470,145 1440,162 1410,145"/>
    <polygon points="1470,111 1500,94 1530,111 1530,145 1500,162 1470,145"/>
    <polygon points="1530,111 1560,94 1590,111 1590,145 1560,162 1530,145"/>
    <polygon points="1590,111 1620,94 1650,111 1650,145 1620,162 1590,145"/>
    <polygon points="1650,111 1680,94 1710,111 1710,145 1680,162 1650,145"/>
    <polygon points="1710,111 1740,94 1770,111 1770,145 1740,162 1710,145"/>
    <!-- Row 3 -->
    <polygon points="120,162 150,145 180,162 180,196 150,213 120,196"/>
    <polygon points="180,162 210,145 240,162 240,196 210,213 180,196"/>
    <polygon points="240,162 270,145 300,162 300,196 270,213 240,196"/>
    <polygon points="300,162 330,145 360,162 360,196 330,213 300,196"/>
    <polygon points="360,162 390,145 420,162 420,196 390,213 360,196"/>
    <polygon points="420,162 450,145 480,162 480,196 450,213 420,196"/>
    <polygon points="480,162 510,145 540,162 540,196 510,213 480,196"/>
    <polygon points="540,162 570,145 600,162 600,196 570,213 540,196"/>
    <polygon points="600,162 630,145 660,162 660,196 630,213 600,196"/>
    <polygon points="660,162 690,145 720,162 720,196 690,213 660,196"/>
    <polygon points="720,162 750,145 780,162 780,196 750,213 720,196"/>
    <polygon points="780,162 810,145 840,162 840,196 810,213 780,196"/>
    <polygon points="840,162 870,145 900,162 900,196 870,213 840,196"/>
    <polygon points="900,162 930,145 960,162 960,196 930,213 900,196"/>
    <polygon points="960,162 990,145 1020,162 1020,196 990,213 960,196"/>
    <polygon points="1020,162 1050,145 1080,162 1080,196 1050,213 1020,196"/>
    <polygon points="1080,162 1110,145 1140,162 1140,196 1110,213 1080,196"/>
    <polygon points="1140,162 1170,145 1200,162 1200,196 1170,213 1140,196"/>
    <polygon points="1200,162 1230,145 1260,162 1260,196 1230,213 1200,196"/>
    <polygon points="1260,162 1290,145 1320,162 1320,196 1290,213 1260,196"/>
    <polygon points="1320,162 1350,145 1380,162 1380,196 1350,213 1320,196"/>
    <polygon points="1380,162 1410,145 1440,162 1440,196 1410,213 1380,196"/>
    <polygon points="1440,162 1470,145 1500,162 1500,196 1470,213 1440,196"/>
    <polygon points="1500,162 1530,145 1560,162 1560,196 1530,213 1500,196"/>
    <polygon points="1560,162 1590,145 1620,162 1620,196 1590,213 1560,196"/>
    <polygon points="1620,162 1650,145 1680,162 1680,196 1650,213 1620,196"/>
    <polygon points="1680,162 1710,145 1740,162 1740,196 1710,213 1680,196"/>
    <polygon points="1740,162 1770,145 1800,162 1800,196 1770,213 1740,196"/>
  </g>

  <!-- Ocean waves - bottom -->
  <g opacity="0.18">
    <path d="M0,700 C200,660 400,720 600,680 C800,640 1000,700 1200,670 C1400,640 1600,700 1920,660 L1920,900 L0,900 Z" fill="#0a2240"/>
    <path d="M0,750 C300,710 600,770 900,730 C1200,690 1500,750 1920,720 L1920,900 L0,900 Z" fill="#061828"/>
    <path d="M0,800 C400,770 800,830 1200,790 C1500,760 1700,810 1920,780 L1920,900 L0,900 Z" fill="#040e1e"/>
  </g>

  <!-- Flowing lines (DNA / water streams) -->
  <g opacity="0.07" stroke="#c8962a" stroke-width="1" fill="none">
    <path d="M-50,300 C200,250 400,380 650,320 C900,260 1100,400 1350,340 C1600,280 1800,380 2000,320"/>
    <path d="M-50,340 C200,290 400,420 650,360 C900,300 1100,440 1350,380 C1600,320 1800,420 2000,360"/>
    <path d="M-50,380 C200,330 400,460 650,400 C900,340 1100,480 1350,420 C1600,360 1800,460 2000,400"/>
  </g>
  <g opacity="0.05" stroke="#1a8c6e" stroke-width="1" fill="none">
    <path d="M-50,500 C300,460 600,540 900,490 C1200,440 1500,520 1920,480"/>
    <path d="M-50,540 C300,500 600,580 900,530 C1200,480 1500,560 1920,520"/>
  </g>

  <!-- Molecular nodes + connections -->
  <g filter="url(#blur2)" opacity="0.25">
    <!-- Node cluster left -->
    <circle cx="180" cy="420" r="3" fill="#c8962a"/>
    <circle cx="280" cy="380" r="2" fill="#c8962a"/>
    <circle cx="320" cy="460" r="3.5" fill="#c8962a"/>
    <circle cx="240" cy="500" r="2" fill="#c8962a"/>
    <line x1="180" y1="420" x2="280" y2="380" stroke="#c8962a" stroke-width="0.8" opacity="0.4"/>
    <line x1="280" y1="380" x2="320" y2="460" stroke="#c8962a" stroke-width="0.8" opacity="0.4"/>
    <line x1="320" y1="460" x2="240" y2="500" stroke="#c8962a" stroke-width="0.8" opacity="0.4"/>
    <line x1="240" y1="500" x2="180" y2="420" stroke="#c8962a" stroke-width="0.8" opacity="0.4"/>

    <!-- Node cluster center -->
    <circle cx="900" cy="200" r="3" fill="#c8962a"/>
    <circle cx="980" cy="260" r="2.5" fill="#c8962a"/>
    <circle cx="860" cy="280" r="3" fill="#c8962a"/>
    <circle cx="1040" cy="200" r="2" fill="#1a8c6e"/>
    <line x1="900" y1="200" x2="980" y2="260" stroke="#c8962a" stroke-width="0.8" opacity="0.5"/>
    <line x1="980" y1="260" x2="860" y2="280" stroke="#c8962a" stroke-width="0.8" opacity="0.5"/>
    <line x1="900" y1="200" x2="1040" y2="200" stroke="#1a8c6e" stroke-width="0.8" opacity="0.4"/>
    <line x1="860" y1="280" x2="900" y2="200" stroke="#c8962a" stroke-width="0.8" opacity="0.5"/>

    <!-- Node cluster right -->
    <circle cx="1600" cy="350" r="3" fill="#c8962a"/>
    <circle cx="1680" cy="300" r="2.5" fill="#1a8c6e"/>
    <circle cx="1720" cy="400" r="3" fill="#c8962a"/>
    <circle cx="1640" cy="440" r="2" fill="#c8962a"/>
    <line x1="1600" y1="350" x2="1680" y2="300" stroke="#c8962a" stroke-width="0.8" opacity="0.4"/>
    <line x1="1680" y1="300" x2="1720" y2="400" stroke="#c8962a" stroke-width="0.8" opacity="0.4"/>
    <line x1="1720" y1="400" x2="1640" y2="440" stroke="#c8962a" stroke-width="0.8" opacity="0.4"/>
    <line x1="1640" y1="440" x2="1600" y2="350" stroke="#c8962a" stroke-width="0.8" opacity="0.4"/>
  </g>

  <!-- Floating particles -->
  <g opacity="0.35">
    <circle cx="80" cy="150" r="1.5" fill="#c8962a"/>
    <circle cx="220" cy="230" r="1" fill="#c8962a"/>
    <circle cx="450" cy="180" r="1.5" fill="#ffffff"/>
    <circle cx="610" cy="130" r="1" fill="#c8962a"/>
    <circle cx="750" cy="290" r="2" fill="#c8962a"/>
    <circle cx="880" cy="160" r="1" fill="#ffffff"/>
    <circle cx="1020" cy="320" r="1.5" fill="#c8962a"/>
    <circle cx="1180" cy="200" r="1" fill="#c8962a"/>
    <circle cx="1300" cy="270" r="2" fill="#ffffff"/>
    <circle cx="1450" cy="140" r="1.5" fill="#c8962a"/>
    <circle cx="1580" cy="220" r="1" fill="#c8962a"/>
    <circle cx="1730" cy="290" r="1.5" fill="#ffffff"/>
    <circle cx="1850" cy="160" r="1" fill="#c8962a"/>
    <!-- Mid level -->
    <circle cx="130" cy="550" r="1" fill="#c8962a"/>
    <circle cx="350" cy="600" r="1.5" fill="#ffffff"/>
    <circle cx="560" cy="480" r="1" fill="#c8962a"/>
    <circle cx="720" cy="620" r="2" fill="#c8962a"/>
    <circle cx="950" cy="540" r="1" fill="#ffffff"/>
    <circle cx="1100" cy="590" r="1.5" fill="#c8962a"/>
    <circle cx="1380" cy="510" r="1" fill="#c8962a"/>
    <circle cx="1520" cy="650" r="2" fill="#ffffff"/>
    <circle cx="1760" cy="570" r="1" fill="#c8962a"/>
    <circle cx="1900" cy="490" r="1.5" fill="#c8962a"/>
  </g>

  <!-- Abstract fish silhouette (subtle, large, far right) -->
  <g opacity="0.04" fill="#c8962a">
    <ellipse cx="1700" cy="450" rx="180" ry="70" transform="rotate(-8 1700 450)"/>
    <polygon points="1880,430 1940,400 1940,500 1880,470" transform="rotate(-8 1880 450)"/>
    <ellipse cx="1700" cy="450" rx="100" ry="35" fill="#040d1a" transform="rotate(-8 1700 450)"/>
  </g>

  <!-- Abstract leaf/plant (subtle, far left bottom) -->
  <g opacity="0.04" fill="#1a8c6e">
    <path d="M50,750 C100,680 200,700 180,800 C160,900 80,880 50,750 Z"/>
    <line x1="80" y1="760" x2="160" y2="790" stroke="#1a8c6e" stroke-width="2"/>
  </g>

  <!-- Top gradient fade -->
  <defs>
    <linearGradient id="topFade" x1="0" y1="0" x2="0" y2="1">
      <stop offset="0%" stop-color="#040d1a" stop-opacity="0.6"/>
      <stop offset="30%" stop-color="#040d1a" stop-opacity="0"/>
    </linearGradient>
    <linearGradient id="bottomFade" x1="0" y1="0" x2="0" y2="1">
      <stop offset="70%" stop-color="#040d1a" stop-opacity="0"/>
      <stop offset="100%" stop-color="#040d1a" stop-opacity="0.8"/>
    </linearGradient>
  </defs>
  <rect width="1920" height="900" fill="url(#topFade)"/>
  <rect width="1920" height="900" fill="url(#bottomFade)"/>
</svg>
